# xmcd
#
# Track frame offsets:
#	182
#	15107
#	30807
#	57222
#	78662
#	104200
#	131832
#	165677
#	206847
#	224395
#	237982
#	258527
#	280162
#	295190
#
# Disc length: 4144 seconds
#
# Revision: 3
# Processed by: cddbd v1.5.1PL0 Copyright (c) Steve Scherf et al.
# Submitted via: MusicWizard 7.0.2
#
DISCID=cc102e0e
DTITLE=Various Artist - Alexis Korner Memorial Concert Volume 2
DYEAR=1995
DGENRE=Blues
TTITLE0=Chris  Farlowe - I Think It's Going To Rain Today
TTITLE1=Chris  Farlowe - Love Me Baby
TTITLE2=Chris  Farlowe - Stormy Monday
TTITLE3=Zoot Money - Wild Women And Desperate Men
TTITLE4=Zoot Money - Geneva | Good Luck Soul
TTITLE5=Zoot Money - Captain America
TTITLE6=Zoot Money - Let The Good Times Roll
TTITLE7=The Detonators - She's Dynamite | Please Try To See It My Way - Morning Glory
TTITLE8=Norman Beaker Band - Cry To Me
TTITLE9=James Litherlan - Another Time Baby
TTITLE10=Mick Abrahams - Billy The Kid
TTITLE11=Tony McPhee - Death Letter
TTITLE12=Dave Berry - K.C. Moan
TTITLE13=Dave Berry - Route 66
EXTD=YEAR: 1995
EXTT0=
EXTT1=
EXTT2=
EXTT3=
EXTT4=
EXTT5=
EXTT6=
EXTT7=
EXTT8=
EXTT9=
EXTT10=
EXTT11=
EXTT12=
EXTT13=
PLAYORDER=
